<svg width="19" height="19" viewBox="0 0 19 19" fill="none" xmlns="http://www.w3.org/2000/svg">
<path d="M16.1552 8.97404C16.1552 8.74599 16.1429 8.52146 16.1182 8.30047C16.1074 8.20167 16.116 8.1017 16.1436 8.00624C16.1712 7.91079 16.2172 7.82172 16.2791 7.74414C16.4041 7.58744 16.586 7.48701 16.7848 7.46493C16.9836 7.44285 17.1829 7.50093 17.339 7.6264C17.4163 7.68853 17.4807 7.76533 17.5284 7.85241C17.5762 7.9395 17.6063 8.03517 17.6172 8.13396C17.6479 8.40996 17.6632 8.68998 17.6632 8.97404C17.6632 13.154 14.2875 16.5423 10.1231 16.5423H4.09103C3.69108 16.5423 3.30751 16.3829 3.0247 16.099C2.74189 15.8151 2.58301 15.4301 2.58301 15.0287V8.97404C2.58301 4.79408 5.95871 1.40576 10.1231 1.40576C10.4061 1.40576 10.6851 1.42089 10.9601 1.45116C11.1589 1.47324 11.3409 1.57372 11.466 1.73048C11.5911 1.88725 11.649 2.08746 11.627 2.28708C11.605 2.4867 11.5049 2.66937 11.3487 2.79491C11.1925 2.92045 10.9931 2.97858 10.7942 2.9565C9.95064 2.86171 9.09667 2.94669 8.28809 3.20587C7.47951 3.46505 6.73453 3.8926 6.10185 4.46057C5.46917 5.02854 4.96303 5.72414 4.61653 6.5019C4.27003 7.27966 4.09096 8.12206 4.09103 8.97404V15.0287H10.1231C11.7229 15.0287 13.2572 14.3908 14.3884 13.2553C15.5197 12.1199 16.1552 10.5798 16.1552 8.97404ZM10.1231 10.4877C10.3231 10.4877 10.5149 10.5674 10.6563 10.7094C10.7977 10.8513 10.8771 11.0438 10.8771 11.2445C10.8771 11.4453 10.7977 11.6378 10.6563 11.7797C10.5149 11.9216 10.3231 12.0014 10.1231 12.0014H7.86108C7.6611 12.0014 7.46932 11.9216 7.32791 11.7797C7.18651 11.6378 7.10707 11.4453 7.10707 11.2445C7.10707 11.0438 7.18651 10.8513 7.32791 10.7094C7.46932 10.5674 7.6611 10.4877 7.86108 10.4877H10.1231ZM12.3851 7.46039C12.5851 7.46039 12.7769 7.54012 12.9183 7.68206C13.0597 7.82399 13.1391 8.01649 13.1391 8.21722C13.1391 8.41794 13.0597 8.61044 12.9183 8.75237C12.7769 8.89431 12.5851 8.97404 12.3851 8.97404H7.86108C7.6611 8.97404 7.46932 8.89431 7.32791 8.75237C7.18651 8.61044 7.10707 8.41794 7.10707 8.21722C7.10707 8.01649 7.18651 7.82399 7.32791 7.68206C7.46932 7.54012 7.6611 7.46039 7.86108 7.46039H12.3851ZM15.4012 0.648926C15.5585 0.648989 15.7118 0.698418 15.8397 0.790294C15.9676 0.882169 16.0637 1.01189 16.1145 1.1613L16.2125 1.44738C16.4387 2.11263 16.959 2.6356 17.6225 2.86265L17.9068 2.96028C18.0554 3.01142 18.1845 3.10792 18.2759 3.23629C18.3672 3.36466 18.4163 3.51848 18.4163 3.67624C18.4163 3.834 18.3672 3.98782 18.2759 4.11619C18.1845 4.24456 18.0554 4.34106 17.9068 4.3922L17.6217 4.49059C16.959 4.71764 16.4379 5.23985 16.2117 5.90586L16.1145 6.19118C16.0635 6.34043 15.9674 6.46996 15.8395 6.56167C15.7116 6.65337 15.5584 6.70268 15.4012 6.70268C15.244 6.70268 15.0908 6.65337 14.9629 6.56167C14.835 6.46996 14.7388 6.34043 14.6879 6.19118L14.5899 5.9051C14.4782 5.57675 14.293 5.27844 14.0486 5.0331C13.8042 4.78777 13.507 4.60192 13.1799 4.48983L12.8956 4.3922C12.7469 4.34106 12.6179 4.24456 12.5265 4.11619C12.4351 3.98782 12.386 3.834 12.386 3.67624C12.386 3.51848 12.4351 3.36466 12.5265 3.23629C12.6179 3.10792 12.7469 3.01142 12.8956 2.96028L13.1806 2.86189C13.8434 2.63485 14.3644 2.11263 14.5906 1.44662L14.6879 1.1613L14.7346 1.0508C14.7989 0.929358 14.8949 0.827778 15.0123 0.756974C15.1298 0.686169 15.2642 0.648816 15.4012 0.648926ZM15.4012 3.06775C15.2228 3.29306 15.0194 3.49721 14.795 3.67624C15.0207 3.85536 15.2227 4.05794 15.4012 4.28398C15.5801 4.05844 15.782 3.85586 16.0066 3.67624C15.7824 3.49716 15.5793 3.29302 15.4012 3.06775Z" fill="#FF62FA"/>
</svg>
